


Plot:
84 years later, a 101-year-old woman named Rose DeWitt Bukater tells the story to
her granddaughter Lizzy Calvert, Brock Lovett, Lewis Bodine, Bobby Buell and
Anatoly Mikailavich on the Keldysh about her life set in April 10th 1912, on a
ship called Titanic when young Rose boards the departing ship with the
upper-class passengers and her mother, Ruth DeWitt Bukater, and her fiancé,
Caledon Hockley. Meanwhile, a drifter and artist named Jack Dawson and his best
friend Fabrizio De Rossi win third-class tickets to the ship in a game. And she
explains the whole story from departure until the death of Titanic on its first
and last voyage April 15th, 1912 at 2:20 in the morning.

SCREENSHOTS:
 
http://lookpic.com/O/i2/1449/Rl5SgEFO.png
 
http://lookpic.com/O/i2/1965/toUTC8H3.png
 
http://lookpic.com/O/i2/415/WtH1XHwV.png


SUBTITLES:
ENGLISH, POLISH others from other BluRay releases on subscene.com

General
Complete name                  : Titanic_1997_720p_BluRay_QEBS9_AAC51_MP4-FASM.mp4
Format                         : MPEG-4
Format profile                 : Base Media
Codec ID                       : isom
File size                      : 4.00 GiB
Duration                       : 3h 14mn
Overall bit rate mode          : Variable
Overall bit rate               : 2 938 Kbps
Encoded date                   : UTC 2012-11-11 09:08:20
Tagged date                    : UTC 2012-11-11 09:08:20

Video
ID                             : 1
Format                         : AVC
Format/Info                    : Advanced Video Codec
Format profile                 : High@L3.1
Format settings, CABAC         : Yes
Format settings, ReFrames      : 5 frames
Codec ID                       : avc1
Codec ID/Info                  : Advanced Video Coding
Duration                       : 3h 14mn
Bit rate                       : 2 570 Kbps
Maximum bit rate               : 9 314 Kbps
Width                          : 1 280 pixels
Height                         : 528 pixels
Display aspect ratio           : 2.40:1
Frame rate mode                : Constant
Frame rate                     : 23.976 fps
Color space                    : YUV
Chroma subsampling             : 4:2:0
Bit depth                      : 8 bits
Scan type                      : Progressive
Bits/(Pixel*Frame)             : 0.159
Stream size                    : 3.50 GiB (87%)
Title                          : 1280x528.264#trackID=1:fps=23.976 - Imported with GPAC 0.5.0-rev4065
Writing library                : FASM Quality Enhancer Bitrate Squeezer 9.0 (c)2012 Fachman
Encoded date                   : UTC 2012-11-11 09:08:20
Tagged date                    : UTC 2012-11-11 09:09:47
Color primaries                : BT.709
Transfer characteristics       : BT.709
Matrix coefficients            : BT.709

Audio
ID                             : 2
Format                         : AAC
Format/Info                    : Advanced Audio Codec
Format profile                 : LC
Codec ID                       : 40
Duration                       : 3h 14mn
Bit rate mode                  : Variable
Bit rate                       : 365 Kbps
Maximum bit rate               : 434 Kbps
Channel(s)                     : 6 channels
Channel positions              : Front: L C R, Side: L R, LFE
Sampling rate                  : 48.0 KHz
Compression mode               : Lossy
Stream size                    : 508 MiB (12%)
Language                       : English
Encoded date                   : UTC 2012-11-11 09:09:37
Tagged date                    : UTC 2012-11-11 09:09:47